<svg xmlns="http://www.w3.org/2000/svg" viewBox="0 0 512 512"><defs><linearGradient id="a" x1="0" x2="1" y1="0" y2="0" gradientTransform="scale(388.39478) rotate(33.179 -.221 .199)" gradientUnits="userSpaceOnUse" spreadMethod="pad"><stop offset="0" stop-color="#803c8f"/><stop offset="1" stop-color="#7c68ab"/></linearGradient></defs><path fill="url(#a)" d="M497.574 77.158c-.445.007-.891.083-1.335.13-.474.05-.947.07-1.414.167-.462.097-.909.267-1.362.41-.424.133-.857.235-1.27.408-.648.272-1.273.634-1.889 1.01-.177.109-.372.177-.547.295l-.067.043-.057.04-218.058 146.78 25.16 17.497L452.89 138.827c-21.703 39.067-45.924 88.969-45.924 117.167 0 28.355 24.497 78.67 46.295 117.833L42.286 85.799a27.477 27.477 0 0 0-2.076-1.38C27.63 76.88 11.32 80.965 3.78 93.544c-7.538 12.58-3.452 28.888 9.129 36.429l213.558 128L70.421 373.49c-3.816 2.85.11 8.679 4.183 6.214l176.76-105.845L489.82 432.452c.277.185.573.319.855.482.19.105.376.218.566.317.911.463 1.863.835 2.846 1.097.157.04.317.066.47.103 1.048.239 2.105.39 3.16.39H497.743c1.042 0 2.083-.146 3.116-.379.145-.032.29-.055.437-.093.968-.25 1.908-.612 2.808-1.061.188-.095.374-.202.564-.308.257-.143.522-.26.775-.42.42-.27.766-.609 1.15-.915.281-.222.582-.426.842-.668a14.331 14.331 0 0 0 2.138-2.471c.015-.022.036-.036.05-.058.17-.257.27-.537.425-.803.304-.526.615-1.054.844-1.602.181-.43.288-.882.428-1.328.134-.435.292-.865.385-1.308.097-.47.122-.95.17-1.427.043-.444.116-.882.118-1.323.005-.447-.06-.898-.097-1.347-.043-.47-.057-.945-.146-1.41-.086-.452-.242-.894-.37-1.34-.128-.436-.228-.882-.396-1.308-.226-.563-.534-1.102-.836-1.646-.143-.258-.236-.53-.396-.782l-.1-.152c-.004-.007-.007-.015-.012-.022-20.72-32.325-74.11-122.98-74.11-156.676 0-33.72 53.452-124.463 74.15-156.741.006-.01.015-.023.02-.036.018-.025.036-.052.053-.079.129-.202.2-.422.316-.63.348-.6.684-1.204.933-1.832.166-.423.261-.87.388-1.309.13-.447.287-.89.37-1.342.087-.465.097-.941.139-1.412.035-.451.103-.898.1-1.348-.007-.435-.08-.868-.127-1.3-.05-.486-.072-.975-.172-1.45-.093-.44-.258-.869-.392-1.304-.136-.445-.243-.896-.426-1.33-.261-.613-.607-1.204-.961-1.79-.127-.21-.206-.436-.344-.642-.009-.01-.02-.02-.026-.032-.43-.633-.931-1.188-1.436-1.73-.143-.153-.25-.328-.4-.475-.083-.084-.185-.14-.275-.218a14.229 14.229 0 0 0-1.967-1.566c-.014-.007-.02-.016-.03-.023-.188-.12-.39-.185-.58-.292-.617-.36-1.24-.704-1.885-.96-.417-.164-.852-.255-1.28-.379-.456-.132-.908-.292-1.37-.378-.467-.085-.945-.1-1.418-.137-.433-.038-.871-.1-1.304-.1h-.033"/></svg>