<svg xmlns="http://www.w3.org/2000/svg" viewBox="0 0 512 512"><defs><linearGradient id="icon-gradient" x1="8.007" y1="255.693" x2="503.93" y2="255.693" gradientUnits="userSpaceOnUse"><stop offset="0" stop-color="#73d7fd" stop-opacity=".627"/><stop offset="1" stop-color="#668b99" stop-opacity="0"/></linearGradient></defs><path d="M239.743.431l-4.309 2.748c-2.027 1.275-1.865 1.699.488 1.274l1.618-.239a2.059 2.059 0 0 1 .737 4.013c-18.076 3.53-34.753 6.506-50.018 8.925-8.826 1.406-17.104 4.266-24.851 8.581-19.269 10.738-39.716 19.276-55.946 33.642-9.512 8.433-18.688 17.267-27.513 26.517a2.206 2.354 24 0 1-1.762.737 22.59 22.59 0 0 1-1.475-.144c-1.144-.163-2.052.23-2.739 1.178-26.117 36.545-46.194 76.24-60.217 119.093a6.73 6.73 0 0 0 .105 4.664 66.38 66.38 0 0 0 1.322 3.381c1.275 3.04 1.891 2.909 1.858-.393-.065-12.029 2.719-23.601 8.341-34.715a1.912 1.961 66.9 0 1 3.582 1.417c-17.423 56.615-13.861 111.892 10.687 165.827.686 1.536 1.781 2.671 3.285 3.39 5.328 2.615 8.688 6.847 10.094 12.698a6.962 7.012 16.2 0 0 1.772 3.237c7.878 8.008 14.33 17.013 19.364 27.015.817 1.634 2.144 2.512 3.974 2.643l12.651.881c1.667.131 3.009.887 4.022 2.26a80.81 80.81 0 0 0 21.518 20.637 1.569 1.569 0 0 1-.192 2.701c-.36.196-.738.358-1.13.488-1.079.294-1.124.718-.144 1.274l41.428 23.194c.36.229.415.506.153.833l-.939 1.082c-.621.719-.435 1.042.546.977 1.863-.196 3.266-1.452 4.214-3.773.523-1.34.114-2.228-1.226-2.653-9.545-3.073-16.884-8.808-22.016-17.209a5.639 5.639 0 0 0-3.974-2.643c-7.42-1.177-12.631-5.187-15.638-12.019a5.246 5.148 80.9 0 0-4.262-3.132l-3.237-.345c-1.961-.196-3.404-1.175-4.319-2.94a419.28 419.28 0 0 0-7.604-13.484c-3.824-6.521-10.635-9.957-14.508-17.41-.883-1.7-.444-2.154 1.322-1.369 3.661 1.667 6.536 3.972 8.628 6.914 9.61 13.369 21.46 23.468 35.548 30.3 1.406.686 1.885.278 1.427-1.226l-.441-1.571a5.541 4.707 13.7 0 1 8.724-4.415c17.324 13.239 35.55 22.944 54.672 29.122.49.163.975.133 1.465-.096l2.356-.929a.74.74 0 0 0-.393-1.427c-5.165.915-8.171-.78-9.021-5.095a5.443 5.541 8.2 0 0-2.844-3.869l-14.949-8.044a.932.932 0 0 0-.938 1.571l4.664 2.94a1.422 1.422 0 0 1-1.082 2.595c-12.356-3.171-22.001-9.9-28.931-20.197-1.406-2.092-1.043-2.44 1.082-1.034l16.721 10.984c2.648 1.732 3.117 1.394 1.417-1.025-.556-.784-1.61-1.718-3.179-2.796-11.866-7.91-21.657-17.147-29.371-27.705a1.373 1.373 0 0 1 1.954-1.867l19.124 15.16c1.373 1.079 2.785 1.124 4.223.144l8.628-5.784c1.111-.752 2.282-.883 3.524-.393l50.506 20.791c2.092.85 3.232 2.384 3.428 4.606.163 2.027 1.097 3.646 2.796 4.855a2.452 2.452 0 0 1-.297 4.166l-8.332 4.367c-1.667.85-1.899 1.99-.69 3.428l5.449 6.33c1.079 1.242 1.548 2.69 1.417 4.357-.294 3.007 1.002 4.697 3.878 5.056a3.089 3.089 0 0 1 .345 6.071l-17.362 4.319a1.912 1.863 43 0 0 .144 3.677c11.8 2.157 22.393 6.929 31.775 14.317a2.942 2.942 0 0 1-1.417 5.248l-14.863 2.011c-.392.065-.453.242-.192.536l12.449 13.972c.915 1.046 2.065 1.656 3.438 1.82l33.728 3.974c2.092.229 3.842 1.107 5.248 2.643l1.867 1.963c1.438 1.569 3.164 2.054 5.19 1.465 23.829-7.061 50.165-9.163 71.69-21.078 36.578-20.201 66.733-38.444 91.494-71.785 4.642-6.243 15.381-22.371 32.215-48.39.163-.261.078-.393-.249-.393l-1.226-.105c-.686-.033-.903-.356-.642-.977 14.383-34.224 22.494-69.918 24.324-107.084.49-9.512-1.861-29.533-7.058-60.064-2.517-14.709-6.804-28.44-12.852-41.189-8.368-17.684-15.637-30.981-21.815-39.905C413.696 44.387 346.54 6.363 260.735.479c-.981-.065-1.868.136-2.653.594-1.111.654-1.172 1.401-.192 2.25l3.974 3.342a2.354 2.403 81 0 1-2.796 3.821L242.741.431a2.844 2.795 44.2 0 0-2.997 0zM12.483 233.81a.149.149 0 0 0-.096.115c-2.648 12.814-4.105 25.849-4.367 39.12-.196 9.872 1.685 20.813 5.641 32.809l10.496 32.551c.49 1.602.142 3.014-1.034 4.223l-1.963 1.906c-4.151 4.151-3.672 4.691 1.427 1.618 2.599-1.569 4.164-5.049 3.428-8.236-2.975-13.304-6.597-26.409-10.879-39.321-.523-1.504-.639-3.022-.345-4.558.817-4.511-.03-8.774-2.547-12.794a7.49 7.49 0 0 1-1.178-4.415l1.618-42.855a.149.149 0 0 0-.201-.163zm17.697 116.833a.985.985 0 0 0-.833 1.302c1.7 7.028 5.402 14.751 11.09 23.185 2.321 3.465 2.644 3.288.977-.536l-10.199-23.29a.985.985 0 0 0-1.034-.661zm450.603 33.317c-.131.016-.247.117-.345.297-8.564 16.344-20.429 29.525-35.596 39.56-4.119 2.697-6.469 6.377-9.509 10.103-10.231 12.814-22.343 23.19-36.333 31.133l-17.602 10.055c-21.672 13.239-44.352 25.057-68.051 35.452-2.484 1.079-2.378 1.548.335 1.417 14.219-.588 45.016-17.109 59.039-23.434a1.961 1.961 0 0 1 2.011.239l1.513 1.178c.49.359 1 .359 1.523 0 25.725-17.455 49.848-36.967 72.37-58.541 5.851-5.622 16.429-20.948 31.727-45.986.163-.261.249-.417.249-.45-.294-.261-.596-.539-.891-.833-.163-.147-.31-.208-.44-.192zm-317.432 9.893c-1.183.006-1.054.796.393 2.365 2.746 2.975 6.463 4.115 11.137 3.428.131 0 .277.055.44.153.098.065.174.081.239.048.229-.033.198-.103-.096-.201-3.53-.834-6.279-4.457-10.496-5.535-.686-.172-1.224-.261-1.618-.259zm27.609 14.125a.947.947 0 0 0-.048 1.867c1.961.392 3.974.478 6.033.249.817-.098 1.579.003 2.298.297 1.013.392 1.977.499 2.892.335a.49.49 0 0 0 0-.977l-10.879-1.762a.947.947 0 0 0-.297-.01zm-53.552 6.857a1.275 1.275 0 0 0-.728 2.27l31.334 19.172a.932.932 0 0 0 1.025-1.523c-9.806-6.766-20.741-13.675-31.037-19.804a1.275 1.275 0 0 0-.594-.115zm46.906 25.77c-.825.082-.273.831 1.647 2.241 4.07 2.942 17.014 4.411 24.123 7.451.261.131.469.07.632-.192.196-.261.398-.64.594-1.13a.834.834 0 0 0-.546-1.13l-23.482-6.665c-1.483-.429-2.474-.624-2.969-.575zm-71.096 2.164a10.934.686 35.4 0 0-.105.019 10.934.686 35.4 0 0 8.513 6.895 10.934.686 35.4 0 0 9.308 5.775 10.934.686 35.4 0 0-8.513-6.895 10.934.686 35.4 0 0-9.203-5.794zm52.201 6.206c-.496.03-.884.295-1.178.785l-1.226 1.867c-1.242 1.994-.742 3.311 1.513 3.965l20.111 5.985c1.242.36 1.55-.034.929-1.178l-.594-1.13c-.131-.229-.146-.476-.048-.737l1.13-3.036a1.765 1.765 0 0 0-1.274-2.308l-18.827-4.166c-.188-.041-.371-.058-.536-.048zm57.746 22.955a11.92 11.92 0 0 0-2.049.192c-5.361.915-5.623 1.647-.785 2.203 1.994.229 3.991.299 5.985.201a1.079 1.079 0 0 0 .239-2.116c-1.124-.327-2.254-.484-3.39-.479zm-7.336 3.189a.932.981 22.1 0 0-.354.086l-13.043 4.223c-.948.327-1.851.226-2.701-.297-.752-.458-1.282-.604-1.609-.44a1.912 1.569 25.9 0 0 1.465 3.132c5.851-.425 11.395-2.035 16.625-4.846a.932.981 22.1 0 0-.383-1.858zm61.998 28.749a1.082 1.082 0 0 0-.278.02l-1.867.105c-1.373.065-2.468.651-3.285 1.762l-1.666 2.26a.588.588 0 0 0 .69.881l6.617-2.892a1.082 1.082 0 0 0-.211-2.136zm28.27.268a1.373 1.422 72.1 0 0-.891.44l-4.415 4.76a1.52 1.52 0 0 0 1.523 2.499c2.844-.719 4.6-2.732 5.286-6.033a1.373 1.422 72.1 0 0-1.504-1.666z" fill="url(#icon-gradient)"/><path d="M188.901 164.837l36.431-78.843a3.48 3.48 0 0 1 3.187-2.059l43.295-.245c1.373-.033 1.716.539 1.03 1.716l-65.491 128.516-.407 70.797c.131 1.929-.785 2.893-2.746 2.893l-38.784-.196c-1.994 0-2.926-.997-2.795-2.991l.147-69.866L95.643 85.651c-.817-1.275-.474-1.896 1.03-1.863l45.403.049c1.77-.001 3.375 1.012 4.119 2.599l37.166 78.451c1.089 2.33 4.418 2.301 5.541-.049zm181.417 139.152l-41.628 74.479a3.138 3.138 0 0 1-5.443.098l-41.481-68.742a3.138 3.138 0 0 0-5.835 1.618l-.098 115.42a3.138 3.138 0 0 1-3.187 3.138l-34.42-.392a3.138 3.138 0 0 1-3.089-3.138l.196-197.499a3.138 3.138 0 0 1 3.138-3.138l33.734-.049a3.138 3.138 0 0 1 2.746 1.569l47.365 80.363a3.138 3.138 0 0 0 5.443-.049l45.354-80.265a3.138 3.138 0 0 1 2.697-1.569l38.196-.343a3.138 3.138 0 0 1 3.187 3.138l-.098 197.941a3.138 3.138 0 0 1-3.089 3.138l-34.42.637a3.138 3.138 0 0 1-3.187-3.138l-.245-121.697a3.138 3.138 0 0 0-5.835-1.52z" fill="#494e5b"/></svg>