<svg xmlns="http://www.w3.org/2000/svg" viewBox="0 0 1913.525 512"><defs><linearGradient id="a" x1="0" x2="1" y1="0" y2="0" gradientTransform="scale(555.96359) rotate(33.179 .112 .1)" gradientUnits="userSpaceOnUse" spreadMethod="pad"><stop offset="0" stop-color="#c1c4cb"/><stop offset="1" stop-color="#6899d4"/></linearGradient></defs><g fill="#6899d4"><path id="logo-icon" fill="url(#a)" d="M712.25 0c-.637.01-1.274.118-1.91.182-.678.07-1.361.099-2.027.245-.66.134-1.297.38-1.951.584-.602.193-1.221.333-1.817.579-.929.397-1.817.91-2.699 1.454-.257.152-.537.245-.788.42l-.094.065-.082.058-312.13 210.098 36.013 25.054L648.286 88.275c-31.064 55.92-65.739 127.35-65.739 167.713 0 40.592 35.066 112.617 66.27 168.677L60.536 12.367a40.374 40.374 0 0 0-2.973-1.974C39.552-.402 16.21 5.445 5.415 23.454-5.38 41.457.468 64.805 18.483 75.6l305.692 183.222-223.364 165.353c-5.467 4.083.152 12.43 5.982 8.902L359.808 281.57l341.337 227.009c.403.268.83.455 1.233.689.269.152.537.315.812.456a19.962 19.962 0 0 0 4.065 1.565c.228.058.456.105.678.158 1.501.339 3.008.555 4.521.555h.035c1.496 0 2.985-.21 4.463-.544.21-.047.415-.076.625-.128a20.771 20.771 0 0 0 4.019-1.525c.269-.14.537-.292.806-.438.368-.204.748-.374 1.11-.601.608-.392 1.098-.87 1.647-1.315.398-.315.836-.607 1.204-.952 1.121-1.046 2.173-2.208 3.066-3.54.018-.029.053-.053.065-.082.25-.374.391-.77.613-1.15.432-.748.882-1.508 1.21-2.29.256-.62.414-1.262.607-1.905.192-.619.426-1.232.555-1.869.14-.672.169-1.361.245-2.044.064-.631.17-1.262.17-1.887.005-.649-.094-1.291-.14-1.934-.065-.671-.088-1.35-.211-2.015-.117-.648-.345-1.28-.532-1.922-.18-.625-.321-1.267-.566-1.87-.327-.811-.76-1.576-1.198-2.359-.204-.362-.339-.754-.56-1.122l-.147-.216c0-.012-.006-.023-.011-.023-29.669-46.276-106.092-176.048-106.092-224.281 0-48.262 76.517-178.163 106.138-224.363l.036-.053.075-.11c.182-.287.28-.608.456-.9.49-.86.97-1.73 1.332-2.629.234-.602.374-1.244.555-1.87.187-.642.409-1.273.531-1.921.123-.666.135-1.35.193-2.021.059-.649.152-1.285.146-1.928-.006-.625-.117-1.244-.18-1.87-.077-.688-.106-1.384-.252-2.067-.134-.63-.362-1.244-.56-1.87-.194-.636-.345-1.279-.608-1.904-.374-.876-.87-1.723-1.379-2.564-.175-.298-.286-.62-.49-.911-.007-.018-.024-.035-.036-.053-.619-.906-1.331-1.7-2.056-2.471-.204-.216-.356-.473-.578-.684-.111-.116-.263-.198-.38-.315-.87-.806-1.793-1.571-2.821-2.237-.018-.012-.03-.023-.047-.03-.269-.175-.555-.268-.824-.426-.887-.514-1.775-1.004-2.704-1.367-.596-.24-1.22-.368-1.828-.549-.66-.187-1.297-.414-1.963-.543-.666-.117-1.35-.134-2.033-.193-.62-.053-1.244-.14-1.858-.14h-.052"/><path id="logo-yaiza" d="M943.426 173.962v52.754h-24.335V174.37l-65.225-90.168h26.993l50.3 69.11 49.892-69.11h27.192zM1149.633 186.438l-36.807-75.045-37.011 75.045zm8.58 17.384h-90.985l-11.25 22.898h-25.353L1102.4 82.361h21.064l71.557 144.359h-25.556zM1256.786 83.585h24.336v143.542h-24.336zM1385.28 207.704h96.313v19.014h-135.368l96.319-123.908h-90.18V83.995h129.644zM1656.016 186.438l-36.807-75.045-37.01 75.045zm8.593 17.384h-90.986l-11.25 22.898h-25.352l71.762-144.359h21.064l71.563 144.359h-25.556z"/><path id="logo-melero" d="M853.865 415.097V272.374h24.33l68.7 109.597 68.702-109.597h24.13v142.723h-24.13V314.911l-61.335 100.8h-14.726l-61.341-100.397v99.783zM1206.553 394.852V415.1h-115.73V272.375h112.663v20.247h-88.334v40.486h80.355v18.804h-80.355v42.94zM1373.375 394.852V415.1h-115.73V272.375h24.335v122.477zM1538.155 394.852V415.1h-115.73V272.375h112.67v20.247h-88.335v40.486h80.355v18.804h-80.355v42.94zM1656.535 356.415c22.49 0 35.779-10.836 35.779-30.469 0-24.738-17.583-31.485-40.282-31.485h-38.443v61.954zm27.601 16.356 30.457 42.327h-27.8l-26.174-38.238c-2.04.205-3.88.205-5.93.205h-41.1v38.033h-24.335V272.375h62.982c41.708 0 63.18 19.02 63.18 52.964 0 24.33-10.63 40.276-31.28 47.432M1875.292 381.361c9.194-8.791 14.113-21.876 14.113-37.42 0-15.538-4.919-28.629-14.113-37.42-9.002-8.581-21.882-13.494-36.392-13.494-14.528 0-27.204 4.913-36.398 13.704-9.41 8.996-14.113 21.672-14.113 37.21 0 15.544 4.702 28.629 14.113 37.42 8.99 8.791 21.677 13.494 36.398 13.494 14.51 0 27.39-4.703 36.392-13.494m-36.392 36.602c-41.305 0-74.642-28.22-74.642-74.022 0-45.394 33.337-74.017 74.642-74.017 41.299-.204 74.828 28.016 74.624 74.017 0 45.802-33.325 74.022-74.624 74.022"/></g></svg>