<svg xmlns="http://www.w3.org/2000/svg" viewBox="0 0 2648.766 512"><g fill="var(--title,#6899d4)"><path d="M1517.58 0c-.636.01-1.273.112-1.903.182-.678.076-1.361.105-2.027.24-.655.14-1.303.379-1.946.59-.613.192-1.232.338-1.822.578-.929.397-1.823.91-2.705 1.454-.257.158-.537.251-.788.42l-.088.059-.088.059-312.13 210.11 36.018 25.042L1453.617 88.27c-31.065 55.926-65.734 127.36-65.734 167.713 0 40.598 35.066 112.623 66.265 168.683L865.866 12.367a39.134 39.134 0 0 0-2.973-1.974C844.889-.397 821.54 5.45 810.746 23.454c-10.789 18.009-4.942 41.351 13.068 52.146l305.698 183.222-223.37 165.359c-5.461 4.077.152 12.425 5.988 8.896l253.015-151.508 341.343 227.009c.397.268.818.455 1.227.689.268.158.531.315.806.456 1.308.66 2.67 1.197 4.077 1.57.222.059.45.094.672.147 1.495.345 3.008.56 4.515.56h.046c1.484 0 2.98-.21 4.457-.543.205-.04.42-.082.625-.134a20.513 20.513 0 0 0 4.02-1.519c.268-.14.537-.292.805-.438.368-.204.754-.374 1.11-.607.602-.386 1.098-.865 1.653-1.309.397-.315.83-.607 1.204-.952a20.841 20.841 0 0 0 3.06-3.54c.018-.029.047-.053.064-.082.246-.368.392-.765.614-1.15.432-.754.882-1.502 1.209-2.29.257-.62.415-1.262.613-1.899.187-.625.415-1.244.544-1.875.14-.672.18-1.367.25-2.05.059-.625.164-1.262.17-1.887.01-.643-.088-1.28-.146-1.928-.058-.671-.076-1.35-.204-2.02-.123-.643-.345-1.274-.532-1.917-.18-.625-.321-1.262-.567-1.87-.32-.805-.765-1.582-1.191-2.359-.205-.368-.345-.754-.573-1.122-.047-.064-.099-.151-.146-.216-.01-.012-.01-.023-.012-.029-29.657-46.275-106.086-176.037-106.086-224.28 0-48.263 76.517-178.152 106.145-224.358l.029-.053c.023-.035.047-.076.07-.11.187-.287.292-.602.455-.906.497-.853.976-1.718 1.338-2.617.24-.608.374-1.244.55-1.875.186-.643.408-1.274.53-1.922.13-.666.141-1.35.2-2.021.052-.643.145-1.285.145-1.934-.012-.619-.116-1.238-.187-1.857-.07-.695-.099-1.396-.239-2.08-.134-.625-.374-1.238-.567-1.857-.192-.637-.35-1.291-.607-1.905-.374-.882-.87-1.729-1.379-2.57-.18-.298-.292-.62-.49-.917-.012-.012-.023-.03-.035-.047-.614-.906-1.332-1.7-2.062-2.477-.205-.216-.35-.467-.567-.677-.123-.123-.269-.2-.391-.316-.87-.806-1.788-1.571-2.822-2.237a.248.248 0 0 1-.04-.035c-.27-.17-.556-.269-.83-.42-.882-.509-1.776-1.006-2.699-1.374-.596-.227-1.227-.362-1.834-.537-.649-.193-1.297-.42-1.963-.543-.666-.129-1.35-.14-2.021-.199-.608-.053-1.215-.14-1.823-.14h-.099"/><path d="M89.56 275.217v52.754H65.226v-52.345L0 185.458h26.993l50.3 69.11 49.892-69.11h27.192zM287.678 287.693l-36.807-75.045-37.011 75.045zm8.581 17.384h-90.986l-11.25 22.898H168.67l71.773-144.359h21.064l71.558 144.359H307.51zM384.37 184.84h24.335v143.542H384.37zM503.765 308.96h96.313v19.013H464.709l96.32-123.908h-90.18v-18.81h129.644zM763.423 287.693l-36.807-75.045-37.011 75.045zm8.592 17.384H681.03l-11.251 22.898h-25.352l71.762-144.359h21.064l71.563 144.359H783.26z"/><path d="M1589.107 327.157V184.433h24.33l68.7 109.597 68.701-109.597h24.131v142.724h-24.13V226.97l-61.335 100.799h-14.727l-61.34-100.396v99.783zM1941.794 306.911v20.247h-115.73V184.435h112.663v20.246h-88.334v40.487h80.355v18.803h-80.355v42.94zM2108.616 306.911v20.247h-115.73V184.435h24.336V306.91zM2273.397 306.911v20.247h-115.73V184.435h112.669v20.246h-88.334v40.487h80.354v18.803h-80.354v42.94zM2391.777 268.474c22.49 0 35.778-10.835 35.778-30.468 0-24.739-17.582-31.486-40.282-31.486h-38.442v61.954zm27.6 16.356 30.458 42.327h-27.8l-26.175-38.238c-2.039.205-3.879.205-5.93.205h-41.1v38.033h-24.335V184.434h62.982c41.708 0 63.181 19.02 63.181 52.964 0 24.33-10.631 40.277-31.28 47.432M2610.533 293.42c9.194-8.791 14.113-21.876 14.113-37.42 0-15.538-4.919-28.629-14.113-37.42-9.002-8.581-21.882-13.494-36.392-13.494-14.528 0-27.204 4.913-36.398 13.704-9.41 8.996-14.113 21.672-14.113 37.21 0 15.544 4.703 28.629 14.113 37.42 8.99 8.791 21.678 13.494 36.398 13.494 14.51 0 27.39-4.703 36.392-13.494m-36.392 36.602c-41.305 0-74.642-28.22-74.642-74.022 0-45.394 33.337-74.017 74.642-74.017 41.299-.204 74.828 28.016 74.624 74.017 0 45.803-33.325 74.022-74.624 74.022"/></g></svg>