<svg xmlns="http://www.w3.org/2000/svg" viewBox="0 0 512 512"><path d="M240.249.002c-.183.017-.357.126-.449.314l-82.419 165.042c-.181.363.122.781.523.721l32.774-4.749a1.24 1.24 0 0 0 .993-.718l52.986-106.309c.198-.385.728-.434.99-.09l66.783 89.15a1.56 1.56 0 0 0 1.468.607l30.959-4.312c.249-.04.368-.329.218-.532L240.746.227c-.124-.169-.313-.241-.496-.224z" fill="var(--text,#7c6cae)"/><path d="M466.09 132.97c-1.757-.012-3.517.056-5.255.189-16.072 1.234-31.055 5.573-44.949 13.014-.348.189-.462.468-.338.838l5.336 16.191a.838.838 0 0 0 1.187.481c9.844-5.386 20.361-8.705 31.555-9.953 7.709-.86 17.261.827 16.988 10.474a.403.403 0 0 1-.436.381c-21.451-1.459-63.146 3.409-65.574 32.363-1.808 21.473 21.866 24.654 37.088 21.452 9.873-2.069 18.358-6.861 25.457-14.375a.37.37 0 0 1 .644.272l-.578 8.199a.642.642 0 0 0 .74.687l23.956-3.462c.552-.08.846-.397.883-.949l2.373-39.264c.537-9.72.301-16.254-.708-19.6-3.878-12.844-16.066-16.851-28.369-16.937zm-4.402 46.557c2.878-.008 5.432.139 7.367.368a.6.6 0 0 1 .589.61c1.481 20.014-40.094 26.916-39.517 14.111.54-12.085 19.088-15.054 31.561-15.089zm-68.681 26.556l10.726 15.571a.348.348 0 0 1-.24.544l-86.839 12.381a.348.348 0 0 1-.392-.359l.98-14.537a.348.348 0 0 1 .098-.218l53.062-53.345a.348.348 0 0 0-.305-.588l-47.759 6.816a.348.348 0 0 1-.403-.359l1.1-17.64a.348.348 0 0 1 .305-.327l78.324-11.913a.348.348 0 0 1 .381.24l4.66 14.45a.348.348 0 0 1-.087.359l-53.41 53.519a.348.348 0 0 0 .294.588l39.168-5.325a.348.348 0 0 1 .338.142zm-84.618-49.566l-4.758 79.38a.468.468 0 0 1-.403.436l-25.077 3.484a.468.468 0 0 1-.534-.49l4.944-79.359a.468.468 0 0 1 .403-.436l24.892-3.506a.468.468 0 0 1 .534.49zm-70.85 8.461c-13.789.082-28.874 4.547-38.084 8.701-1.067.49-2.525 1.83-3.058 2.897l-10.802 21.146a.49.49 0 0 0 .664.664c11.666-5.953 23.958-10.004 36.88-12.152 8.167-1.35 20.57-1.295 20.766 9.845a.653.653 0 0 1-.708.664c-18.794-1.416-44.044 1.645-57.775 15.778-6.566 6.773-9.68 18.152-5.815 26.95 3.267 7.426 12.217 11.171 19.632 11.769 16.246 1.314 30.003-3.788 41.27-15.308a.316.316 0 0 1 .544.249l-.555 8.386c-.029.472.192.676.664.61l24.228-3.507c.399-.058.613-.288.642-.687l2.167-37.054c.479-8.755 2.069-17.737-2.112-25.708-5.222-9.974-16.381-13.314-28.547-13.241zm-2.297 46.633c2.509.011 4.81.138 6.735.34.639.065.969.418.991 1.057.414 15.048-24.174 23.292-35.563 18.926-4.748-1.818-4.922-6.23-2.614-10.106 4.822-8.086 19.579-10.263 30.451-10.217zM98.221 282.796a.392.403 15.2 0 0 .392-.229l52.463-104.349a1.089 1.089 0 0 1 .795-.577l33.179-4.856q.849-.131.457.632-36.522 72.597-72.934 145.161c-9.463 18.849-21.56 34.572-41.661 41.868q-6.577 2.385-21.244 4.464-16.279 2.319-32.525 4.606a.501.512 87.4 0 1-.588-.523l1.176-24.261q.022-.632.653-.719 27.081-4.062 34.376-5.031c12.392-1.633 20.711-9.789 28.148-19.709 1.209-1.601 1.764-1.982.73-4.062q-8.036-16.159-15.876-32.416-.218-.468.011-.936l15.255-30.543a.621.61 44.9 0 1 1.1 0q7.677 15.386 15.364 31.034.196.414.73.446zm358.127-15.952l32.286-4.562a.512.512 0 0 1 .577.555l-.958 11.499a.512.512 0 0 1-.436.457l-49.632 7.023a.512.512 0 0 1-.577-.544l3.648-52.507a.512.512 0 0 1 .446-.468l49.566-6.947a.512.512 0 0 1 .577.555l-.991 11.466a.512.512 0 0 1-.436.457L457.6 238.5a.512.512 0 0 0-.436.501l-.207 7.404a.512.512 0 0 0 .577.523l28.692-4.007a.512.512 0 0 1 .588.555l-.871 9.822a.512.512 0 0 1-.436.457l-28.997 4.051a.512.512 0 0 0-.446.479l-.305 8.036a.512.512 0 0 0 .588.523zm-65.475 21.734c-14.21.436-27.887-8.123-26.928-23.727.98-15.876 15.125-27.179 29.455-30.848 11.825-3.027 23.509-1.818 33.571 5.488q.316.229.044.501l-11.074 11.03q-.37.37-.806.087-15.43-9.756-28.681 2.123c-10.225 9.168-4.225 23.629 10.181 20.787q9.746-1.927 16.377-8.82a1.241 1.241 0 0 1 1.59-.163l10.933 7.502q.261.185.043.414-14.09 14.972-34.703 15.626z" fill="var(--title,#1d1d1c)"/><path fill="var(--text,#7c6cae)" d="M75.224 237.487L59.435 268.76a.338.338 0 0 1-.61 0l-15.179-30.522a.338.338 0 0 1 .294-.49l30.968-.751a.338.338 0 0 1 .316.49z"/><path d="M334.087 270.709l1.655-26.961a.37.37 0 0 1 .316-.348l16.148-2.33a.37.37 0 0 1 .414.392l-3.31 52.735a.37.37 0 0 1-.316.348l-12.468 1.764a.37.37 0 0 1-.305-.098l-26.014-24.304a.37.37 0 0 0-.621.24l-1.579 27.952a.37.37 0 0 1-.327.348l-16.214 2.21a.37.37 0 0 1-.414-.381l3.212-52.768a.37.37 0 0 1 .327-.348l13.513-1.731a.37.37 0 0 1 .305.098l25.055 23.433a.37.37 0 0 0 .621-.25zm-82.125-15.461l-13.209 1.708a.37.37 0 0 0-.272.185l-32.622 56.895a.37.37 0 0 0 .381.544l17.945-2.493a.37.37 0 0 0 .272-.185l6.478-11.793a.37.37 0 0 1 .272-.185l23.903-3.343a.37.37 0 0 1 .391.206l4.736 9.953a.37.37 0 0 0 .393.206l17.367-2.524a.37.37 0 0 0 .272-.544l-25.938-48.435a.37.37 0 0 0-.37-.196zm-7.339 18.441a.49.49 0 0 1 .534.245l4.53 8.384a.49.49 0 0 1-.359.719l-10.128 1.501a.49.49 0 0 1-.5-.729l5.598-9.874a.49.49 0 0 1 .325-.245zm-69.805-7.312a23.51 23.51 0 0 0-1.986.075 527.86 527.86 0 0 0-23.498 2.407 1.143 1.1 8.7 0 0-.882.619l-27.006 57.037a.468.468 0 0 0 .49.664l43.665-5.924c9.045-1.234 16.99-4.828 23.836-10.78 15.691-13.644 15.015-38.275-8.146-43.339-2.287-.501-4.445-.753-6.474-.76zm-3.624 14.691c4.213.071 8.167 1.156 10.361 4.668 1.873 2.991 1.97 6.252.293 9.787-2.889 6.076-7.904 9.811-15.047 11.205a291.96 291.96 0 0 1-20.538 3.247.436.446 9.2 0 1-.446-.634l11.881-25.654a2.145 2.156 7.9 0 1 1.588-1.208c3.223-.539 7.695-1.482 11.907-1.411zm307.607 27.753q3.648-4.573-1.361-4.976-4.726-.381-9.386-1.089c-7.818-1.187-4.922-10.149-.076-12.642q8.668-4.475 17.727-1.122a.784.784 0 0 1 .316 1.252l-2.592 2.929a.762.762 0 0 1-.904.185c-3.953-1.862-11.357-2.494-13.513 2.298q-.229.523.142.958c3.245 3.789 11.477.86 15.8 4.334 4.268 3.43-.131 9.582-4.138 11.412q-9.267 4.225-18.838.523a.991.991 0 0 1-.327-1.644l2.679-2.515a.719.74 37.3 0 1 .838-.12q6.414 3.158 13.11.599a1.23 1.198 8.2 0 0 .523-.381zm-57.488-13.222a12.784 17.705 67.2 0 0-8.826 1.85 12.784 17.705 67.2 0 0-11.367 18.647 12.784 17.705 67.2 0 0 21.276 4.923 12.784 17.705 67.2 0 0 11.367-18.647 12.784 17.705 67.2 0 0-12.45-6.774zm-1.993 4.521a8.559 11.314 64.2 0 1 8.318 4.213 8.559 11.314 64.2 0 1-6.461 12.629 8.559 11.314 64.2 0 1-13.911-2.782 8.559 11.314 64.2 0 1 6.461-12.629 8.559 11.314 64.2 0 1 5.593-1.431zm-46.937 3.572l-1.612 24.478a.588.588 0 0 1-.523.544l-4.693.566a.588.588 0 0 1-.664-.621l1.579-24.38a.588.588 0 0 1 .512-.544l4.726-.664a.588.588 0 0 1 .675.621zm-47.486 6.273a13.99 13.99 0 0 0-.729.011c-3.739.152-8.868.875-15.387 2.167a.76.76 0 0 0-.664.761l-1.525 23.945c-.022.327.131.486.457.479 11.194-.381 24.87-2.58 29.051-13.273 3.154-8.059-3.676-14.003-11.204-14.09zm-3.001 4.502c3.704-.002 7.26 1.057 8.369 4.328 1.655 4.867-2.569 10.137-6.925 11.738-2.686.98-6.014 1.576-9.985 1.786-.428.022-.629-.182-.6-.61l.872-15.266a.61.61 0 0 1 .434-.587c1.982-.743 4.954-1.387 7.835-1.389zm-60.874 25.354q6.414 1.067 9.952-3.724c2.788-3.757 2.352-13.949 2.613-18.664q.033-.534.566-.61l4.606-.675q.795-.12.73.686-.697 7.492-1.056 14.842c-.207 4.138-2.94 7.807-6.577 9.92-5.129 2.984-16.823 5.444-20.253-1.514-2.014-4.105-.283-14.395.065-19.339q.044-.632.675-.708l4.562-.566q.719-.087.653.632-1.1 11.521-1.002 15.658c.055 2.319 2.254 3.691 4.464 4.062zm-53.878-9.07l-8.7 1.034a.74.74 0 0 1-.817-.849l.436-2.668a.74.74 0 0 1 .621-.61L223.575 324a.74.74 0 0 1 .838.795l-.218 2.744a.74.74 0 0 1-.621.675l-8.994 1.394a.74.74 0 0 0-.621.686l-1.22 20.221a.74.74 0 0 1-.653.686l-4.562.512a.74.74 0 0 1-.828-.784l1.274-19.393a.74.74 0 0 0-.828-.784z" fill="var(--title,#1d1d1c)"/><path fill="var(--text,#7c6cae)" d="M465.549 324.762l22.224 30.043a.621.621 0 0 1-.425.98l-30.99 4.192a.621.621 0 0 1-.577-.25l-22.235-29.77a.621.621 0 0 1 .414-.991l31.001-4.443a.621.621 0 0 1 .588.24z"/><path fill="var(--title,#1d1d1c)" d="M154.561 342.435c4.802 2.036 12.707-.043 15.593 4.062 2.254 3.223-.512 8.286-3.343 9.952q-9.648 5.673-20.711 1.024a.675.675 0 0 1-.229-1.078l2.679-2.853a.958.958 0 0 1 1.111-.207c4.072 2.014 13.121 3.278 15.506-2.102a1.034 1.024 38.7 0 0-.12-1.045c-2.091-2.69-11.205-2.287-12.903-2.7-8.341-2.047-3.735-10.649 1.372-13.045q8.461-3.964 16.845-.577a.686.686 0 0 1 .24 1.111l-2.711 2.864q-.436.468-1.024.207c-4.04-1.753-9.985-2.243-13.012 1.699a1.753 1.764 30.2 0 0 .708 2.69z"/><path d="M124.909 337.801c-.114-.015-.238-.014-.371.006l-8.798 1.262c-.39.061-.726.308-.903.664l-9.931 19.951c-.196.392-.196.783 0 1.175l75.461 150.757a.69.69 0 0 0 1.166.108l120.594-160.523c.282-.387-.037-.924-.511-.861l-36.033 5.087c-2.864.392-3.353 1.231-4.943 3.343l-73.978 98.902a.85.85 0 0 1-1.438-.129l-59.531-119.125c-.18-.365-.44-.57-.783-.616z" fill="var(--text,#7c6cae)"/></svg>