<svg xmlns="http://www.w3.org/2000/svg" viewBox="0 0 512 512"><g fill="var(--title,#171717)"><path d="M242.87 214.943c-.09 2.147-.702 4.037-1.919 5.853-1.196 1.98-2.873 3.769-4.982 5.32-2.335 1.71-4.928 3.08-7.8 4.114-2.87 1.191-6.108 2.05-9.627 2.552-4.655.667-8.526.343-11.568-.983-2.62-1.04-3.718-2.779-3.555-5.64l.01-.198-.037-.253c.276-3.292 2.052-6.007 5.449-8.316 3.486-2.459 8.642-4.189 15.33-5.141 3.933-.563 7.826-.85 11.556-.85h.03c1.769.015 3.417.093 4.893.235.835.08 1.639.18 2.406.298zm16.448-44.555c-6.957-4.96-17.757-6.437-32.087-4.388-7.822 1.111-14.691 2.665-20.466 4.633-5.539 2.058-6.222 2.444-8.927 4.151l-.681.43-11.797 23.268 5.147-2.346c4.29-1.956 12.118-4.842 17.627-6.712 3.161-1.174 8.514-2.32 15.479-3.312 7.077-1.016 12.4-.535 15.826 1.435 3.16 1.766 4.58 4.792 4.337 9.204a110.62 110.62 0 0 0-3.662-.261c-1.93-.107-3.876-.16-5.801-.16h-.005c-4.196.037-9.238.472-14.986 1.292a93.417 93.417 0 0 0-8.033 1.5 82.144 82.144 0 0 0-7.567 2.144c-5.077 1.773-9.411 3.995-12.8 6.545-3.66 2.48-6.72 5.692-9.094 9.536-2.102 3.377-3.377 7.461-3.79 12.136l-.02.224.039.284c-.282 4.04.519 7.654 2.39 10.75 1.713 2.794 4.194 5.198 7.378 7.146l.206.11c3.21 1.478 6.877 2.52 11 3.112 1.428.131 2.92.197 4.452.197.647 0 1.302-.012 1.963-.035a64.776 64.776 0 0 0 6.813-.617c4.587-.653 8.791-1.862 12.494-3.592 3.647-1.709 6.914-3.672 9.716-5.842 2.632-2.04 4.853-4.139 6.613-6.242l-.6 10.133 25.37-3.62 2.865-46.974c.788-11.003-2.375-19.12-9.4-24.129M277.61 239.839l25.779-3.677 4.835-80.172-25.777 3.676-4.837 80.173M352.048 211.376l54.29-54.454-4.876-14.724-78.555 11.915-1.118 18.222 49.153-7.011-53.796 54.063-.982 15.156 87.388-12.47-11.098-16.259-40.406 5.562"/><path d="m469.09 182.885-.002.042c-.09 2.148-.7 4.037-1.919 5.855-1.196 1.978-2.871 3.77-4.984 5.319-2.33 1.709-4.923 3.08-7.796 4.116-2.865 1.188-6.103 2.046-9.627 2.551-4.657.668-8.526.343-11.566-.983-2.622-1.038-3.72-2.777-3.56-5.641l.01-.199-.036-.251c.274-3.291 2.05-6.007 5.448-8.317 3.487-2.458 8.644-4.188 15.332-5.142 3.935-.563 7.826-.85 11.556-.85h.028c1.768.015 3.416.093 4.894.233a44.48 44.48 0 0 1 2.404.301zm16.449-44.512c-6.956-4.96-17.754-6.438-32.092-4.391-7.828 1.116-14.696 2.671-20.463 4.636a188.873 188.873 0 0 0-16.433 6.99l-1.559.754 5.69 17.457 2.02-.921c4.174-1.905 9.009-4.043 13.262-5.489 3.883-1.44 8.55-2.554 13.868-3.313 7.084-1.016 12.4-.534 15.823 1.435 3.16 1.768 4.58 4.793 4.339 9.204a110.758 110.758 0 0 0-9.467-.42h-.005c-4.217.038-9.257.474-14.98 1.29-2.738.392-5.441.895-8.037 1.5a83.306 83.306 0 0 0-7.563 2.144c-5.08 1.773-9.415 3.996-12.804 6.547-3.656 2.478-6.715 5.687-9.092 9.538-2.101 3.374-3.377 7.458-3.79 12.134l-.02.226.039.282c-.284 4.04.518 7.652 2.389 10.748 1.714 2.796 4.196 5.2 7.38 7.148l.205.11c3.21 1.478 6.879 2.523 11 3.112 1.428.131 2.919.197 4.452.197.647 0 1.303-.012 1.965-.037a64.354 64.354 0 0 0 6.813-.613c4.59-.655 8.792-1.865 12.493-3.594 3.649-1.71 6.916-3.674 9.715-5.843 2.636-2.046 4.86-4.146 6.615-6.244l-.601 10.136 25.37-3.621 2.865-46.973c.785-11.003-2.377-19.121-9.398-24.13M185.781 172.654l-34.365 5.11-52.984 105.698-.065-.13-6.389-12.77-10.14-20.276-.036.07-15.884 31.689-.049.096 16.841 34.455-.053.097c-3.59 6.67-12.03 14.392-15.549 16.66-3.482 2.753-8.145 4.569-13.841 5.38l-34.95 4.988-1.37 25.453 38.906-5.554a121.22 121.22 0 0 0 9.417-1.706c2.923-.656 5.71-1.58 8.282-2.746a50.126 50.126 0 0 0 7.555-3.737 104.654 104.654 0 0 0 7.394-4.92c2.667-2.008 5.326-4.498 7.948-7.43a80.76 80.76 0 0 0 4.447-5.438c1.879-2.505 3.786-5.378 5.667-8.538a456.56 456.56 0 0 0 5.91-10.274l1.827-3.642 48.724-97.138 22.773-45.4h-.016"/><path d="M182.85 291.042c-.04.948-.184 1.853-.427 2.698-.26.913-.593 1.804-.992 2.654a19.92 19.92 0 0 1-3.776 4.856c-1.527 1.443-3.45 2.7-5.685 3.722-2.282 1.015-4.832 1.733-7.581 2.135l-18.953 2.84 12.814-27.497 8.933-1.31c2.695-.391 5.144-.401 7.273-.02 2 .36 3.663 1.004 4.87 1.859 1.164.882 2.08 1.99 2.796 3.38.568 1.338.812 2.906.728 4.684zm12.196-16.544a17.51 17.51 0 0 0-4.165-3.535c-3-1.989-6.602-3.371-10.764-4.119-4.076-.65-8.56-.63-13.317.066l-17.896 1.864-27.487 58.056 43.423-5.501c4.826-.71 9.37-2.028 13.536-3.932a51.544 51.544 0 0 0 5.792-3.171 38.026 38.026 0 0 0 5.05-3.83 34.81 34.81 0 0 0 4.27-4.479 36.324 36.324 0 0 0 3.278-4.913l.034-.064c1.93-3.67 3.02-7.462 3.237-11.263.233-3.882-.471-7.512-2.092-10.78a20.79 20.79 0 0 0-2.899-4.399M238.118 284.51l6.608-11.628 5.301 9.947zm.51-27.522-33.097 57.447 18.727-2.642 6.861-12.087 24.135-3.408 5.191 10.383 17.926-2.528-26.26-49.064-13.484 1.9M333.79 271.428l-25.802-24.147-13.762 1.943-3.308 53.24 16.803-2.37 1.79-28.956 26.631 24.942 12.872-1.818 3.307-53.236-16.808 2.37-1.724 28.032M382.566 257.855a18.111 18.111 0 0 1 3.643-4.952c1.79-1.664 3.76-3.002 5.85-3.975a23.755 23.755 0 0 1 6.743-1.988c2.521-.355 4.987-.296 7.334.183 2.303.469 4.56 1.409 6.707 2.793l2.197 1.417 11.733-11.757-3.494-2.144c-3.628-2.225-7.556-3.717-11.676-4.435-4.047-.705-8.491-.725-13.21-.061a50.388 50.388 0 0 0-6.963 1.473 41.604 41.604 0 0 0-6.395 2.457c-3.547 1.669-6.965 3.889-10.153 6.602-3.274 2.788-5.989 6.166-8.085 10.075-1.85 3.543-2.916 7.252-3.173 11.09-.19 4.016.515 7.643 2.087 10.77 1.714 3.44 4.164 6.222 7.276 8.27 2.984 1.965 6.379 3.336 10.069 4.074 2.125.439 4.417.657 6.853.647a46.76 46.76 0 0 0 6.243-.47c4.596-.65 9.145-1.962 13.517-3.897 4.444-1.967 8.717-4.877 12.698-8.652l2.898-2.746-11.717-8.082-1.895 1.627c-2.402 2.068-4.933 3.8-7.522 5.146-2.484 1.291-5.22 2.153-8.133 2.564-2.153.305-4.31.293-6.41-.034-1.9-.294-3.544-.993-4.905-2.04-1.196-1.02-2.12-2.242-2.828-3.736-.668-1.413-.94-2.99-.83-4.795.13-1.809.649-3.636 1.54-5.425M490.225 233.695l.978-12.43-50.415 7.118-3.598 53.28 50.403-7.116.979-12.43-33.468 4.725.393-9.085 29.707-4.195.866-10.775-29.657 4.187.346-8.556 33.466-4.723"/><path d="M170.385 346.662c-.392-.729-1-1.328-1.824-1.804-.435-.224-.911-.429-1.424-.618a11.442 11.442 0 0 0-1.72-.467c-.632-.1-1.314-.194-2.049-.278a40.356 40.356 0 0 0-2.361-.2 58.266 58.266 0 0 1-2.096-.128 24.133 24.133 0 0 1-1.684-.19 16.128 16.128 0 0 1-1.297-.24 5.261 5.261 0 0 1-.989-.324c-.506-.213-.866-.495-1.082-.843a2.18 2.18 0 0 1-.284-1.275c.059-.887.578-1.672 1.548-2.357.891-.743 2.199-1.238 3.919-1.481a15.647 15.647 0 0 1 2.202-.153c.723 0 1.442.087 2.152.245.704.115 1.41.282 2.117.502.707.22 1.418.493 2.128.818l3.224-3.837c-.79-.41-1.616-.754-2.476-1.036a15.412 15.412 0 0 0-2.665-.62 16.55 16.55 0 0 0-2.966-.202 27.806 27.806 0 0 0-3.394.287 20.677 20.677 0 0 0-4.433 1.127c-1.39.554-2.586 1.235-3.587 2.04a11.098 11.098 0 0 0-2.425 2.729c-.618.99-.956 2.046-1.01 3.165-.09 1.201.098 2.185.56 2.949.367.73 1.01 1.339 1.93 1.824.8.456 1.883.79 3.241 1 .656.096 1.36.18 2.117.25a36.01 36.01 0 0 0 2.388.143c.768.058 1.448.107 2.048.154.601.047 1.13.106 1.592.182.923.154 1.64.338 2.143.553.535.256.895.535 1.079.84.14.313.21.718.21 1.217-.072 1.007-.638 1.87-1.695 2.59-1.058.744-2.46 1.237-4.204 1.485-2.046.29-3.855.263-5.422-.085a16.341 16.341 0 0 1-4.6-1.837l-3.592 3.783c.932.556 1.912 1.01 2.934 1.363 1.023.354 2.093.63 3.213.825 2.204.326 4.564.312 7.072-.042.842-.12 1.649-.27 2.43-.452.783-.18 1.53-.418 2.246-.711 1.446-.536 2.69-1.212 3.738-2.026a9.49 9.49 0 0 0 2.521-2.777c.617-1.012.954-2.14 1.018-3.38a6.373 6.373 0 0 0-.054-1.489 3.6 3.6 0 0 0-.438-1.22M197.857 331.625l10.223-1.453-1.291 21.253 5.72-.812 1.288-21.253 10.223-1.45.266-4.13-26.163 3.714-.266 4.13M272.68 331.47c-.162 2.349-.992 4.221-2.475 5.62-1.555 1.428-3.575 2.32-6.062 2.672-2.511.356-4.473.012-5.88-1.05-1.352-1.017-1.964-2.723-1.83-5.114l.932-14.512-5.65.803-.945 14.687c-.09 1.842.132 3.413.673 4.71a7.107 7.107 0 0 0 2.546 3.164c1.105.767 2.494 1.268 4.164 1.507 1.62.22 3.503.179 5.643-.124 2.14-.302 4.048-.799 5.73-1.49a15.639 15.639 0 0 0 4.518-2.776 13.014 13.014 0 0 0 3.027-3.99c.728-1.547 1.151-3.259 1.267-5.125l.932-14.473-5.649.803-.942 14.687M330.135 323.173c-.175.595-.4 1.174-.68 1.733a12.319 12.319 0 0 1-2.448 3.053c-.988.9-2.196 1.665-3.626 2.295-1.408.604-2.95 1.025-4.622 1.262l-6.35.9 1.034-17.266 6.35-.9c1.674-.239 3.194-.239 4.555 0 1.363.233 2.502.664 3.423 1.294a7.011 7.011 0 0 1 2.091 2.444c.446.978.64 2.091.578 3.332a7.716 7.716 0 0 1-.305 1.858zm3.947-9.545a7.884 7.884 0 0 0-1.93-1.558c-1.46-.932-3.212-1.574-5.254-1.925-2.084-.32-4.361-.304-6.826.044l-11.999 1.704-1.558 25.381 11.999-1.705c2.513-.356 4.84-1.006 6.983-1.95a26.926 26.926 0 0 0 2.996-1.585 18.806 18.806 0 0 0 2.56-1.874 16.596 16.596 0 0 0 2.134-2.154 17.351 17.351 0 0 0 1.64-2.367c.942-1.723 1.464-3.469 1.57-5.24.107-1.747-.217-3.35-.966-4.81a9.191 9.191 0 0 0-1.349-1.962M364.705 329.014l5.652-.799 1.627-25.394-5.648.802-1.63 25.391M427.897 307.522c-.072 1.172-.403 2.37-1 3.593a10.595 10.595 0 0 1-2.443 3.23 12.437 12.437 0 0 1-3.704 2.5 16.035 16.035 0 0 1-4.273 1.23 13.899 13.899 0 0 1-4.08-.026c-1.369-.208-2.573-.725-3.614-1.552-.852-.636-1.525-1.473-2.015-2.508-.488-1.033-.695-2.196-.616-3.488.088-1.224.426-2.433 1.014-3.63a10.985 10.985 0 0 1 2.423-3.228 12.603 12.603 0 0 1 3.704-2.501 16.155 16.155 0 0 1 4.273-1.229 12.793 12.793 0 0 1 4.044.048c1.305.23 2.52.742 3.651 1.528.875.638 1.55 1.478 2.033 2.524.479 1.048.682 2.217.603 3.51zm5.04-5.877c-.773-1.596-1.893-2.876-3.356-3.829-1.464-.954-3.11-1.61-4.94-1.968-1.958-.41-4.204-.436-6.737-.076-2.444.346-4.733 1.015-6.87 2.008-.91.436-1.804.937-2.687 1.5a22.01 22.01 0 0 0-2.524 1.89 19.962 19.962 0 0 0-2.255 2.294 15.402 15.402 0 0 0-1.808 2.678c-.898 1.691-1.42 3.462-1.561 5.309-.103 1.771.2 3.402.908 4.89.637 1.308 1.49 2.392 2.56 3.249a12.074 12.074 0 0 0 3.607 1.976c1.336.465 2.766.742 4.283.835 1.52.092 3.05.03 4.582-.188 1.49-.211 3.01-.581 4.558-1.111a22.79 22.79 0 0 0 4.457-2.073 21.916 21.916 0 0 0 3.977-3.071 17.936 17.936 0 0 0 3.151-4.113c.899-1.717 1.418-3.477 1.565-5.276.103-1.793-.2-3.435-.91-4.924M478.39 308.539c-1.058.741-2.46 1.237-4.202 1.484-2.045.292-3.856.263-5.42-.083a16.465 16.465 0 0 1-4.604-1.837l-3.592 3.781a15.53 15.53 0 0 0 2.934 1.363c1.024.354 2.093.63 3.213.827 2.208.327 4.564.312 7.075-.045.84-.119 1.647-.27 2.428-.45.782-.181 1.53-.418 2.249-.71 1.443-.536 2.687-1.212 3.735-2.026a9.5 9.5 0 0 0 2.52-2.777c.617-1.012.955-2.14 1.018-3.384a6.09 6.09 0 0 0-.053-1.484 3.521 3.521 0 0 0-.438-1.22c-.389-.73-.997-1.33-1.824-1.806-.432-.224-.908-.429-1.42-.616a11.335 11.335 0 0 0-1.724-.468 44.608 44.608 0 0 0-4.407-.479 52.364 52.364 0 0 1-2.098-.128c-.639-.052-1.2-.114-1.683-.187a19.748 19.748 0 0 1-1.3-.242 5.284 5.284 0 0 1-.987-.324c-.506-.213-.867-.494-1.08-.844-.22-.371-.315-.797-.288-1.276.064-.884.58-1.67 1.549-2.354.892-.743 2.199-1.238 3.92-1.482a15.127 15.127 0 0 1 2.202-.153 9.8 9.8 0 0 1 2.151.245 15.5 15.5 0 0 1 2.12.503c.709.219 1.415.491 2.126.818l3.227-3.837a16.51 16.51 0 0 0-2.477-1.037 15.259 15.259 0 0 0-2.669-.618 16.096 16.096 0 0 0-2.964-.203c-1.05.02-2.183.114-3.394.286a20.555 20.555 0 0 0-4.43 1.128c-1.395.552-2.59 1.233-3.59 2.039-.489.4-.932.826-1.33 1.275-.4.446-.764.932-1.095 1.454a6.523 6.523 0 0 0-1.01 3.166c-.09 1.201.097 2.183.563 2.947.362.732 1.008 1.34 1.93 1.824.8.458 1.88.791 3.24 1 .655.1 1.358.182 2.116.252.755.072 1.553.12 2.386.141.769.06 1.45.11 2.048.156.6.044 1.132.107 1.595.18.924.156 1.637.339 2.14.553.535.256.895.537 1.083.841.137.314.206.72.21 1.216-.073 1.007-.638 1.87-1.7 2.59"/><g opacity=".5"><path d="M59.463 269.139 43.561 237.35h31.805"/><path d="M156.921 166.24C184.623 110.83 240.041 0 240.041 0l104.901 139.654-31.794 4.486-67.82-89.861-53.973 107.156"/><path d="m464.735 324.285-32.155 4.547 22.971 30.87 32.146-4.549"/><path d="m180.938 512-76.087-152.12 10.532-21.013 10.05-1.42 60.364 120.682 76.94-102.553 39.779-5.63"/></g></g></svg>